# xmcd CD database file
#
# Track frame offsets:
#	150
#	17905
#	33962
#	50480
#	61877
#	80327
#	97280
#	111697
#	131167
#	144785
#	201710
#
# Disc length: 4440 seconds
#
# Revision: 3
# Processed by: cddbd v1.5.2PL0 Copyright (c) Steve Scherf et al.
# Submitted via: CDex 1.70beta2
#
DISCID=a511560b
DTITLE=The Thrills - Let's Bottle Bohemia
DYEAR=2004
DGENRE=Rock
TTITLE0=Tell Me Something I Don't Know
TTITLE1=Whatever Happened To Corey Haim?
TTITLE2=Faded Beauty Queens
TTITLE3=Saturday Night
TTITLE4=Not For All The Love In The World
TTITLE5=Our Wasted Lives
TTITLE6=You Can't Fool Old Friends With Limousines
TTITLE7=Found My Rosebud
TTITLE8=The Curse Of Comfort
TTITLE9=The Irish Keep Gate-crashing
TTITLE10=Stupid Protection
EXTD=YEAR: 2004
EXTT0=
EXTT1=
EXTT2=
EXTT3=
EXTT4=
EXTT5=
EXTT6=
EXTT7=
EXTT8=
EXTT9=
EXTT10=
PLAYORDER=
